<?xml version="1.0" encoding="UTF-8"?>
<svg id="_레이어_1" data-name="레이어 1" xmlns="http://www.w3.org/2000/svg" viewBox="0 0 945 108">
  <defs>
    <style>
      .cls-1 {
        fill: #fff;
      }

      .cls-2 {
        fill: #00927a;
      }
    </style>
  </defs>
  <path class="cls-2" d="m504,239h-62c-149,0-269,114-269,269h0c0,71,0,122,45,17-5,21-15,74-45,85,116,7,113-12,151-13,36,17,76,27,118,27h62c149,0,269-12,269-269h0c0-149-12-269-269-269Z"/>
  <path class="cls-1" d="m293,642s33-26,46-53,8-95,69-129c65-36,98-6,162-27s83-58,83-58c0,0,4,142-86,203-73,49-13,33-153,28-23-5-52-5-79,9"/>
</svg>